<?xml version="1.0" encoding="UTF-8"?>
<!DOCTYPE svg  PUBLIC '-//W3C//DTD SVG 1.1//EN'  'http://www.w3.org/Graphics/SVG/1.1/DTD/svg11.dtd'>
<svg enable-background="new 0 0 600 600" version="1.1" viewBox="0 0 600 600" xml:space="preserve" xmlns="http://www.w3.org/2000/svg">
<path d="m454.23 180.55c0-40.869-33.131-74-74-74-8.504 0-16.665 1.453-24.27 4.093-11.243-19.606-32.364-32.823-56.585-32.823-34.354 0-62.483 26.575-64.999 60.285-1.772-0.163-3.564-0.258-5.378-0.258-32.009 0-57.958 25.949-57.958 57.958 0 30.597 23.714 55.639 53.763 57.79l-1e-3 0.015h0.198c1.323 0.09 2.653 0.153 3.998 0.153 1.418 0 2.819-0.069 4.211-0.169l139.93-0.276c2.14 0.182 4.303 0.293 6.495 0.293 2.313 0 4.6-0.117 6.862-0.319h0.145l-4e-3 -0.01c37.64-3.41 67.59-34.2 67.59-72.71z" fill="#27AAE1"/>
<path d="m314.9 425.72h242.62c0.499 0 0.988 0.04 1.471 0.099-4.606-21.713-23.879-38.007-46.964-38.007-7.455 0-14.513 1.699-20.808 4.731-6.284-8.969-16.689-14.839-28.472-14.839-0.384 0-0.764 0.017-1.144 0.029-5.408-22.834-25.912-39.829-50.4-39.829-27.557 0-50.079 21.518-51.704 48.667-23.299 0.423-42.592 17.218-46.862 39.369 0.72-0.14 1.48-0.22 2.25-0.22z" fill="#27AAE1"/>
<path d="m242.53 407.92c3.067-4.274 4.879-9.51 4.879-15.173 0-14.391-11.667-26.058-26.058-26.058-6.54 0-12.513 2.415-17.088 6.395-6.11-6.076-14.529-9.832-23.826-9.832-0.246 0-0.489 0.013-0.734 0.019v-0.019c0-22.114-17.927-40.042-40.042-40.042-22.114 0-40.042 17.927-40.042 40.042 0 2.732 0.276 5.399 0.797 7.978-22.282 0.058-40.328 18.137-40.328 40.432 0 22.332 18.103 40.435 40.435 40.435 0.897 0 1.784-0.04 2.667-0.097-1.669 2.278-2.667 5.08-2.667 8.121 0 7.606 6.166 13.771 13.771 13.771 5.665 0 10.527-3.423 12.641-8.311 5.002 5.125 11.981 8.311 19.708 8.311 6.166 0 11.859-2.027 16.449-5.45 5.331 6.218 13.237 10.162 22.069 10.162 11.77 0 21.898-7 26.469-17.06 4.354 2.337 9.331 3.666 14.619 3.666 17.098 0 30.958-13.86 30.958-30.958-0.01-11.12-5.88-20.87-14.69-26.33z" fill="#27AAE1"/>
</svg>
