<svg xmlns="http://www.w3.org/2000/svg" xmlns:xlink="http://www.w3.org/1999/xlink" version="1.1" x="0px" y="0px" viewBox="0 0 100 125" enable-background="new 0 0 100 100" xml:space="preserve"><path fill="#000000" d="M81.889,35.915c-6.739,0-15.464,2.596-21.075,4.545c0.77-0.676,1.433-1.523,1.711-2.893  c0.043-0.21,0.08-0.429,0.116-0.65c0.108-0.653,0.209-1.272,0.53-1.638c0.368-0.419,2.342-1.924,3.185-2.566l0.62-0.475  c0.474-0.367,0.562-1.054,0.192-1.528c-0.368-0.477-1.052-0.563-1.528-0.193l-0.603,0.463c-1.577,1.201-3.033,2.322-3.505,2.866  c-0.729,0.832-0.9,1.875-1.04,2.715c-0.032,0.193-0.063,0.384-0.101,0.569c-0.25,1.201-0.919,1.68-2.027,2.469  c-0.209,0.148-0.423,0.301-0.644,0.466c-0.088,0.066-0.176,0.128-0.26,0.192c-0.551-0.827-1.247-1.551-2.054-2.152  c1.202-1.222,1.943-2.856,1.943-4.657c0-1.434-0.464-2.762-1.261-3.863l4.521-4.681c0.418-0.431,0.408-1.117-0.025-1.535  c-0.43-0.422-1.121-0.407-1.538,0.026l-4.491,4.646c-1.253-0.932-2.835-1.492-4.555-1.492c-1.723,0-3.305,0.561-4.559,1.492  l-4.489-4.646c-0.414-0.433-1.106-0.448-1.539-0.026c-0.433,0.418-0.445,1.104-0.026,1.535l4.521,4.681  c-0.796,1.102-1.26,2.43-1.26,3.863c0,1.801,0.74,3.435,1.944,4.657c-0.808,0.601-1.501,1.326-2.052,2.152  c-0.086-0.063-0.174-0.125-0.263-0.192c-0.22-0.165-0.435-0.318-0.643-0.466c-1.109-0.79-1.779-1.269-2.027-2.469  c-0.037-0.185-0.069-0.376-0.099-0.569c-0.14-0.84-0.313-1.883-1.039-2.713c-0.476-0.546-1.929-1.667-3.509-2.868l-0.604-0.463  c-0.475-0.37-1.156-0.279-1.527,0.193c-0.368,0.474-0.28,1.161,0.193,1.528l0.621,0.475c0.842,0.642,2.817,2.147,3.186,2.568  c0.318,0.364,0.417,0.982,0.527,1.636c0.037,0.221,0.072,0.44,0.117,0.65c0.282,1.37,0.941,2.217,1.711,2.893  c-5.611-1.951-14.336-4.545-21.076-4.545c-3.717,0-6.415,0.813-8.017,2.417l-0.196,0.197l0.043,0.277  c0.02,0.11,1.921,11.231,12.038,11.479c0.652,1.228,3.436,5.318,11.515,5.318l0,0c0.226,0,0.454,0,0.686-0.003l8.742-4.292  c-0.005,0.008-0.008,0.015-0.011,0.022c-2.391,1.991-5.54,4.637-6.435,5.397c-0.195,0.171-0.388,0.326-0.572,0.477  c-1.16,0.946-2.357,1.924-2.645,3.987c-0.029,0.216-0.051,0.441-0.074,0.662c-0.066,0.66-0.127,1.28-0.42,1.665  c-0.343,0.446-2.227,2.087-3.032,2.784L29.166,66.8c-0.451,0.397-0.494,1.089-0.095,1.541c0.214,0.239,0.514,0.363,0.815,0.363  c0.255,0,0.514-0.092,0.719-0.271l0.559-0.485c1.502-1.31,2.89-2.531,3.329-3.107c0.671-0.873,0.774-1.927,0.86-2.771  c0.02-0.195,0.037-0.39,0.063-0.579c0.17-1.215,0.807-1.736,1.864-2.601c0.196-0.157,0.401-0.322,0.609-0.505  c0.547-0.467,1.954-1.651,3.507-2.948c-0.253,0.899-0.456,1.843-0.593,2.819c-1.681,3.828-4.578,9.076-9.463,14.555  c-0.401,0.449-0.362,1.138,0.088,1.541c0.207,0.182,0.466,0.273,0.724,0.273c0.3,0,0.599-0.122,0.814-0.362  c3.453-3.877,5.951-7.615,7.747-10.87c0.779,7.644,5.5,13.538,9.212,13.546c3.751-0.008,8.534-6.017,9.241-13.769  c1.802,3.3,4.331,7.124,7.868,11.093c0.215,0.24,0.513,0.362,0.813,0.362c0.259,0,0.516-0.092,0.723-0.273  c0.45-0.403,0.489-1.092,0.088-1.541c-5.12-5.747-8.06-11.234-9.695-15.097c-0.071-0.442-0.154-0.881-0.255-1.305  c-0.076-0.375-0.168-0.744-0.263-1.106c1.616,1.351,3.099,2.599,3.667,3.082c0.205,0.183,0.41,0.348,0.608,0.505  c1.057,0.864,1.694,1.386,1.863,2.601c0.025,0.189,0.043,0.384,0.063,0.579c0.084,0.844,0.188,1.897,0.858,2.771  c0.44,0.576,1.828,1.798,3.33,3.107l0.558,0.485c0.208,0.18,0.465,0.271,0.721,0.271c0.3,0,0.601-0.124,0.814-0.363  c0.4-0.452,0.358-1.144-0.094-1.541l-0.567-0.497c-0.806-0.697-2.69-2.338-3.032-2.786c-0.294-0.383-0.356-1.003-0.42-1.663  c-0.022-0.221-0.044-0.446-0.075-0.662c-0.285-2.063-1.484-3.041-2.645-3.987c-0.185-0.15-0.376-0.306-0.571-0.477  c-0.895-0.759-4.04-3.402-6.43-5.392l8.498,4.201l0.227,0.062c0.234,0.003,0.465,0.003,0.689,0.003  c8.077,0,10.86-4.091,11.515-5.318c10.114-0.249,12.017-11.369,12.035-11.479l0.044-0.277l-0.197-0.197  C88.304,36.728,85.606,35.915,81.889,35.915z M44.06,54.322h11.732c0.352,0.9,0.65,1.865,0.868,2.902H43.193  C43.413,56.188,43.71,55.223,44.06,54.322z M49.933,74.771c-1.084-0.002-2.609-1.125-3.974-3.049h7.937  C52.534,73.646,51.013,74.77,49.933,74.771z M55.516,68.822H44.341c-0.391-0.889-0.72-1.865-0.98-2.9h13.136  C56.232,66.957,55.903,67.934,55.516,68.822z M56.992,63.021H42.86c-0.053-0.583-0.092-1.177-0.092-1.792  c0-0.375,0.021-0.742,0.042-1.106h14.233c0.022,0.364,0.043,0.731,0.043,1.106C57.086,61.845,57.046,62.438,56.992,63.021z"/><text x="0" y="115" fill="#000000" font-size="5px" font-weight="bold" font-family="'Helvetica Neue', Helvetica, Arial-Unicode, Arial, Sans-serif">Created by Nick Kinling</text><text x="0" y="120" fill="#000000" font-size="5px" font-weight="bold" font-family="'Helvetica Neue', Helvetica, Arial-Unicode, Arial, Sans-serif">from the Noun Project</text></svg>